<?xml version="1.0" encoding="UTF-8"?>
<svg id="Lager_2" data-name="Lager 2" xmlns="http://www.w3.org/2000/svg" viewBox="0 0 167.24 320.38">
  <g id="oland">
    <path d="m22.26,194.64s-.52-7.23,4.13-13.16,10.84-16.26,16.26-24,12.94-24,20.15-23.48,13.15,4.13,14.69-5.94,2.32-8,6.97-15.48,8.52-9.81,12.39-13.68-.26-6.45,5.42-14.19,10.06-8.52,12.39-15.48,5.94-12.13,1.29-19.87c0,0-5.16-2.58,4.9-4.13s2.84-14.45,4.9-19.61,7.48-9.81,11.87-12.9c0,0,.52-5.84,8.77-10.32s9.29-1.55,5.42,0c0,0,3.61,10.58,6.97,5.68s2.06-3.1,1.55-5.42,4.52.52,3.35,3.81,2.71,7.94,2.71,7.94c0,0,4.26,1.16-6.19,2.52s-13.16,7.16-12.77,11.81,6.39,7.74,3.48,13.35-.58,9.1-.58,9.1c0,0,3.1,3.29-5.42,2.9,0,0-2.52.39-1.74,6,0,0-.19,1.55-2.9,3.48,0,0-.39,2.13.19,3.1s-2.71.19-3.48.58,1.55,2.13-.58,3.68-3.87.39-3.48,4.26-1.74.19-3.48,2.9.77,3.68.77,3.68c0,0-1.35.77-1.94,2.9s-3.48-1.35-2.9,1.16.58,1.74,0,4.84-9.1-1.35-9.48-.58,3.48,1.55,2.52,3.29-2.13,4.26-1.55,3.97.39-.48,2.9,0-.58,1.64,1.16,3.39-3.87.97-3.87.97c0,0,.58,1.74,1.35,3.48s-3.87-1.94-4.65.39-1.94-.97-2.9.77-2.9,1.55-1.35,4.06,0,4.45,2.13,5.23,4.65-.19,3.29,1.74-3.68-.58-3.29,2.32,3.1,2.71,1.74,5.23-5.61,5.42-7.94,7.74-.19.39.39,2.13,0,3.29-.97,2.9.77,3.48.77,3.48c0,0,.97,5.81-3.1,8.13,0,0,.97,2.32-.58,2.9s-2.71-.97-3.29-1.16-3.1.58-3.1.58l.77,2.32s-1.94,2.9-4.26,1.16-4.06,4.26-4.06,4.26l-2.32,7.16s-1.16,0-1.94,1.35,2.13,2.52.39,6.77-4.45,5.23-4.45,5.23c0,0-2.52,1.16-.97,7.74,0,0-.58,3.87-2.9,5.42s-1.74,3.87-1.55,7.35c0,0-.97,2.71-3.68,4.84s.97,5.23.97,5.23c0,0,.39,5.81-6.58,8.9s-8.52,5.61-8.32,8.52,1.55,4.84-.97,7.55-2.52,3.68-2.52,6.77-3.68,9.87-5.61,11.03-1.16,7.74-4.65,9.68.19,2.9.19,2.9c0,0-.39,3.87-2.13,3.87s1.55,2.32,1.55,2.32c0,0,1.16-.58-6.19,14.32,0,0-2.52.77-4.26,4.65s-6.19,11.23-6.19,11.23c-2.32,7.94-6,10.65-9.68,11.23s-3.68,4.45-3.68,4.45c0,0-3.87-1.74-5.61,2.52,0,0-1.74-6.97,1.35-13.94s.39-1.16.39-1.16c0,0-1.94-3.87-3.48-4.84,0,0-1.35-.97.97-13.16s2.52-9.1.77-14.52,4.26-12.39.97-12.39-7.94.58-7.35-8.13-.1-11.03-.05-16.26-2.08-4.65,2.37-6.58c0,0,1.74-2.9,2.13-6.58s3.1-6.19,4.26-7.55-.77-3.1-2.13-3.87,1.16.97,6.19-2.52,2.32-3.68,4.65-6.19,4.1-4.34,4.32-8.06Z"/>
  </g>
</svg>