<?xml version="1.0" encoding="UTF-8"?>
<svg id="Lager_2" data-name="Lager 2" xmlns="http://www.w3.org/2000/svg" viewBox="0 0 338.76 272.18">
  <g id="Lager_1-2" data-name="Lager 1">
    <g>
      <path d="m281.79,222.77s-.2-2.84,1.62-5.17,4.26-6.39,6.39-9.43,5.08-9.43,7.92-9.23,5.16,1.62,5.77-2.33.91-3.14,2.74-6.08,3.35-3.85,4.87-5.37-.1-2.53,2.13-5.58,3.95-3.35,4.87-6.08,2.33-4.77.51-7.81c0,0-2.03-1.01,1.93-1.62s1.12-5.68,1.93-7.71,2.94-3.85,4.66-5.07c0,0,.2-2.29,3.45-4.06s3.65-.61,2.13,0c0,0,1.42,4.16,2.74,2.23s.81-1.22.61-2.13,1.77.2,1.32,1.5,1.06,3.12,1.06,3.12c0,0,1.67.46-2.43.99s-5.17,2.81-5.02,4.64,2.51,3.04,1.37,5.25-.23,3.57-.23,3.57c0,0,1.22,1.29-2.13,1.14,0,0-.99.15-.68,2.36,0,0-.08.61-1.14,1.37,0,0-.15.84.08,1.22s-1.06.08-1.37.23.61.84-.23,1.44-1.52.15-1.37,1.67-.68.08-1.37,1.14.3,1.44.3,1.44c0,0-.53.3-.76,1.14s-1.37-.53-1.14.46.23.68,0,1.9-3.57-.53-3.73-.23,1.37.61.99,1.29-.84,1.67-.61,1.56.15-.19,1.14,0-.23.65.46,1.33-1.52.38-1.52.38c0,0,.23.68.53,1.37s-1.52-.76-1.83.15-.76-.38-1.14.3-1.14.61-.53,1.6,0,1.75.84,2.05,1.83-.08,1.29.68-1.44-.23-1.29.91,1.22,1.06.68,2.05-2.21,2.13-3.12,3.04-.08.15.15.84,0,1.29-.38,1.14.3,1.37.3,1.37c0,0,.38,2.28-1.22,3.19,0,0,.38.91-.23,1.14s-1.06-.38-1.29-.46-1.22.23-1.22.23l.3.91s-.76,1.14-1.67.46-1.6,1.67-1.6,1.67l-.91,2.81s-.46,0-.76.53.84.99.15,2.66-1.75,2.05-1.75,2.05c0,0-.99.46-.38,3.04,0,0-.23,1.52-1.14,2.13s-.68,1.52-.61,2.89c0,0-.38,1.06-1.44,1.9s.38,2.05.38,2.05c0,0,.15,2.28-2.59,3.5s-3.35,2.21-3.27,3.35.61,1.9-.38,2.97-.99,1.44-.99,2.66-1.44,3.88-2.21,4.33-.46,3.04-1.83,3.8.08,1.14.08,1.14c0,0-.15,1.52-.84,1.52s.61.91.61.91c0,0,.46-.23-2.43,5.63,0,0-.99.3-1.67,1.83s-2.43,4.41-2.43,4.41c-.91,3.12-2.36,4.18-3.8,4.41s-1.44,1.75-1.44,1.75c0,0-1.52-.68-2.21.99,0,0-.68-2.74.53-5.48s.15-.46.15-.46c0,0-.76-1.52-1.37-1.9,0,0-.53-.38.38-5.17s.99-3.57.3-5.7,1.67-4.87.38-4.87-3.12.23-2.89-3.19-.04-4.33-.02-6.39-.82-1.83.93-2.59c0,0,.68-1.14.84-2.59s1.22-2.43,1.67-2.97-.3-1.22-.84-1.52.46.38,2.43-.99.91-1.44,1.83-2.43,1.61-1.7,1.7-3.17Z"/>
      <path d="m184.14,55.7s2.17,1.4,1.66-1.15.59-1.74,1.32-2.97-.59-3.19-.98-3.19c0,0-1.1-3.06,4.12-1.32,0,0,2.72.13,1.02-2.76,0,0-.81-.55-.89-1.66,0,0-2.08-2.72.81-2,0,0,.25.21.13,1.19s2.38.51,1.87-.98-.04-1.06.64-1.02-.34-1.91,3.27-1.36c0,0,.85.04.68,2-.17,1.95,3.27,2.17,3.27,2.17,0,0,1.4.17,2.76,1.83s2.93-.76,2.93-.76c0,0,4.86-.99,5.76-1.33s-.91,2.15,1.81,2.6c0,0-1.81,6,2.72,3.4s-1.25-5.55,2.15-6.23c0,0,.45,1.59,1.36-2.04,0,0,.79,2.94,2.6.11s-1.25-1.25,1.81-2.83,0,0,0,0c0,0-2.6-4.19-3.28-4.3s-2.49-1.81.68-3.62c0,0,0-1.47-.45-2.83s.34-1.93,3.62-1.47c0,0,2.15-3.62-2.38-5.1s1.93-4.76-3.62-7.02c0,0-1.25-5.21,1.13-4.08,0,0,.68-.68.79,1.7s1.13-.57,3.96.79c2.83,1.36,2.15-3.28,4.3-1.93,0,0,1.47,5.44,3.28,1.36,0,0-1.02-5.66,1.13-4.42s1.13-3.17,3.28-3.17-1.36-3.28,3.62-1.59c0,0,2.49,5.1,5.1,1.36,0,0,2.6-1.81,4.76.45s5.15,4.93,7.7,2.46.17,1.53,2.63.76,1.1.93,1.1.93c0,0-1.1,1.53,1.19,1.19,0,0,.76,1.7,0,3.23s-1.78,0-1.02,2.46c0,0,.34.42,2.46.17,0,0,0,1.1,1.53.93s-1.02,2.29-.85,3.82.76,2.8,3.48,3.06.23,1.02,0,1.59,1.59,1.56,2.15.11,2.04,3.96,2.49,1.81,1.7-.91,2.94-3.17,4.08-.91,4.08-.91c0,0,.45,1.47,0,2.38s.68,1.47-2.27,1.59c0,0-1.25,2.6-.91,3.51s.34,1.47,2.49,3.4c0,0,1.25,1.25-2.27,1.25s.68.91.68.91c0,0,1.36.11.11,1.36s1.7,1.7,1.25,2.6-.68.68-2.15.91-3.62-4.98-5.55-2.15c0,0-.57,4.08-4.19-.34,0,0-2.27-1.13-1.59-2.04s-3.62-3.06-.23-3.06c0,0,3.4,1.57,1.13-.74s-3.06-1.57-2.49-2.9-3.06-1.56-4.3-3.15.11-3.17-1.59-3.51-.68,1.36-.68,1.36v3.06s3.94,4.1,5.89,4.08-1.13,1.7-1.13,1.7c0,0-.68,4.19,1.02,4.98s.91,1.81-.11,1.59-3.62-5.66-7.36-2.94c0,0-2.27,1.93,2.49,3.17,0,0,.68,1.02.45,1.7s2.04,2.94,3.85,4.76,5.66,6.12,6.8,7.47,4.08,3.74,4.08,5.44-1.32,1.98-1.7-.68-3.06-3.06-3.06-3.06c0,0-2.15,1.4,1.25,2.94,0,0-.11,3.64,1.59,2.72,0,0,1.25.34.91,2.15,0,0,2.72,1.19.11,1.7,0,0-1.3.11.57,1.19s-1.64.96-1.93.34c0,0-1.13-.34-1.47,1.19,0,0-1.64.34-3.11-1.02s-.79.85.96,1.93-1.64,2.77-1.19,4.64,1.13,2.66,1.7,3,1.08,1.59.23,2.27-2.15-.31-2.15-.31c0,0-.98.21-.13,1.1s.93.93.68,2.21c0,0,.21,1.74,3.19,1.4,0,0,1.7.17-.93,1.4-2.63,1.23-1.27-2.59-5.01-3.82,0,0-1.44-.72-2.34-1.1,0,0-.13-.98.64-1.23,0,0,.25-2.17-.89-2s-1.95.08-1.61,1.1.13,1.74.89,1.61.13.89-1.36,1.1-.55,1.57.21,1.57,1.19.36,3.14,3c0,0,3.36,2.09,6.8,1.33,0,0,.98-.93,1.32-.47s1.44,1.49.98,2.72-1.1-.47-1.53-.93-.59-.21-.42.55-.89.25-1.36.08-.25,1.91-.08,2.04,1.1.76,1.87,1.27-.25.81-.13.98,2.04,2.51,2.89,3.19c0,0,.76.89-.42,1.32h-2.34c-.13,0-2.68-.13-1.06,1.57s1.15.17,2.04,1.27c0,0,4.08-.04,1.83,1.49,0,0-1.57.98-1.66,2.34s-1.4,1.36-2.76,1.49c0,0-1.95,1.78-1.66,2.68s.98,1.44.76,2.46-1.95,2.93-3.1.42c0,0-1.87-.64-3.14-.34s-.38,3.31-.38,3.31c0,0,.89.72.13,2.21,0,0-.42,1.23,1.23.76,0,0-.04,1.1.38,1.36s.13,1.19.13,1.19c0,0-1.4.59-1.4-.64,0,0-1.02-.39-.89.78s-3.95.62-3.91,2.07-2,1.15-1.91,2.8c0,0-1.49,1.23-.17,2.17s2.51,1.53,2.38,3.44-2.68,3.19-2.51,4.46c0,0,.51.85-.55,2.21,0,0-.64,2.21-.17,3.14s3.14,2.51,3.74,4.37-.47,2.89,1.49,3.02c0,0,.76-.17.93,1.19s1.57,1.1,1.57,1.1c0,0,.93,1.19.72,1.74s-.93,1.49-2.08,1.32c0,0-.59,1.44,1.06,1.66s1.66,1.02,1.74,1.44-1.1,2.72-2.12.72c0,0-1.06-.85-1.02.42,0,0-.47.68-.55-1.61,0,0-.81-1.44-1.23,1.02s-1.44,2.59-3.23,1.66-1.66.51.72,1.87c0,0,.59.51-.72,2.72,0,0-1.02.85.42,3.95,0,0-.04,2.08-1.53-.38,0,0-1.15-1.44-.68-3.48,0,0-1.23-.93-1.19,2s1.32,4.12,2.34,4.97.21,3.61.21,3.61c0,0-.89.55-1.91,0s-1.66,1.19-.13,1.95.59,3.95.59,3.95c0,0-1.23.51-.64,2.29,0,0,.04,1.4-1.78,3.02,0,0-.47.38-.13,2.97,0,0,.08,1.06-1.02,1.7,0,0-.3,1.19.04,1.74,0,0,.21,3.86,3.19.68s2.93,1.7,2.93,1.7c0,0-1.91,5.65-4.2.47,0,0-4.33-1.1-4.8,2.19,0,0-.13,1.08.51,2.27,0,0,.17,1.02-.3,1.53,0,0,1.19.38.64,1.32s-1.95,1.32-.76,2.38.21,1.19-.04,2.46,1.66,2.17-.38,4.16-3.36-.51-4.29-.25c0,0-2.46-.34-1.78,1.95s-3.19.55-2.34,2.12c0,0,.89,1.23-1.7,3.1l.08,7.81s-.47,2.46-2.85,3.02c0,0,.34,1.4-1.23,3.31,0,0-.42,1.23-.81,3.23s-2.21.93-2.68,2.38.89,3.44-1.87,5.31c0,0-.51-.38-.51,2.63s-.93,2.38-.85,4.16-.89,2.42-.81,5.27c0,0-.25,1.27-2.68.68,0,0-.93,1.06-1.95,2.72s-2.04-.04-3.57,0c0,0,.59-4.67-2.55-1.49s-1.95,0-4.46.08-.3-2.68-4.08-2.8-3.36-2.72-3.23-3.61,1.53-2.72.08-3.78.08-2.72-2.46-2.68-5.27-.42-5.35-5.39.04-.21.04-.21c0,0-1.74-2.97-4.63-2.04-2.89.93-.55-4.12-2.25-3.95s-5.73-1.95-5.48.72c0,0,1.32.93,1.02,1.95s-1.66,1.02-2.59-.13c0,0-.08.08-2.12.08,0,0-.85-.17-1.19-1.66s-2.38,1.4-2.38,1.4c0,0-.38,1.83-3.31,0,0,0-2.17-.64-2.04.93s-.04,1.78-2.08,1.78.76,1.27-2.04,1.27c0,0-.55-3.91-1.91-1.44-1.36,2.46-1.15.17-2.17-.08s-1.74,1.61.81,2.55-2.12,5.01-3.1,2.25-1.57-.64-1.53.3-1.49-1.78-3.95-2.59-3.23,1.02-3.23,1.02c0,0-.93.93-1.53-1.27-.59-2.21-7.81-.85-5.95.17s-.76,1.36-.55,3.44c0,0-.25.47-.98,1.02s1.57,1.23,1.53,1.91.47,2.97-2.34,1.36c0,0-1.4-.34-1.78.89s-.55-2.51-1.7.93c0,0-.21.76.3,1.53s-4.88.42-4.88.42c0,0-.72-.17-.68-1.44s-.85,1.15-3.1.13,1.74-2.51-1.1-2.17c0,0-1.02,0-1.57.51s-.68-.42-2-1.15-1.57,1.36-2.8.98-.81-2.68-2-2.21-2.55,1.49-2.55,1.49c0,0-2.42.51.38-1.91,0,0,.86-.51-1.35-2.93,0,0-.35-.72-.47-1.83s-4.84-1.53-4.84-1.53c0,0-6.54-2-6.16-3.61s-1.87-1.36-2.12-.55-1.91,1.44-3.82-.25-4.8-1.02-4.8-1.02c0,0-1.74.76-2.38-1.91,0,0-3.06-1.78-4.2.81,0,0,.04.72-2.51.81s-2.46-1.61-3.69-2.25-2,.3-3.1-1.95-2.17-4.59-2.38-1.1c0,0,.38.89-1.36.76s-2.59,1.1-2.04,2.04-.17,2.17-.17,2.17c0,0-.42,1.19,0,2.59s-2.93,2.46-3.61,1.06c-.68-1.4-2.21-.64-2.12-.04s-.68,1.53-2,.34-1.36.89-1.36.89c0,0-1.32.42-2.21-.04s-.47,2-.47,2c0,0-.42,1.4-2-.17s-1.83.64-1.83.64c0,0-.42,1.02-3.06-.76,0,0-.72-.17-1.44.89,0,0-2.04-.55-2.29.68s-1.02,1.23-3.48-.47c0,0-.59-.21-.72.81s-1.32.81-2.34.13-1.66.98-1.66.98c0,0-.42,2-2,.68s-1.49,1.06-3.36,1.91-4.46-.59-5.35-1.7-2.38-.68-1.36-2.42-1.06-1.06-.93-3.95-1.66-.76-1.36-5.18c0,0,.38-.76,1.78-1.06s-1.1-5.82-1.1-5.82c0,0-.13-3.06-2.08-3.44,0,0-1.15.42-.76-2.93.38-3.36-.08-.25-.08-.25,0,0-2-.98-1.2-4.33s-6.33-5.86-6.33-5.86c0,0-2.63.08-2.42-2.55,0,0-.72-.51,1.83-1.66,0,0-.47-3.65.47-3.74s2.46-4.12.25-6.07c-2.21-1.95-.85-2.25-.72-2.97s-1.49-.55.38-2.89,2.21-3.27,2.25-5.27,1.36-2.25,1.87-1.1,1.53-.3,1.7-.55,1.74-.34,2.42.42,1.91-.76,2.42-1.53,4.54-.38,4.88.38.47-1.61,1.32-1.53,3.48-.04,3.48-.04c0,0,1.66-2.85,4.97-2.51,0,0,.55.47,2.21-2.8,0,0,.64-1.36,2.72-1.53,0,0,1.4-2.04-1.44-2.17,0,0-1.44.04.17-4.08,0,0,.59-2.93-2.55-2.08,0,0-.76,1.57-2.04-.47,0,0-.17-1.06-2.25-.76s-.93-2.59-.93-2.59c0,0,1.49-4.25-.51-4.71,0,0-.89-.81-1.23-2.04,0,0-1.15.47-1.53-1.4s-2.85-.55-3.86-3.27c0,0-2.08-2.12-2.63,1.06,0,0-1.57,2.29-2.25-1.83,0,0-3.69-1.27-5.39.76s-1.4-1.23-3.69,1.06-5.61.42-5.61.42c0,0-.72,0-.68,1.32s-2.08,1.23-2.08,1.23c0,0-.68-.64-.34,2.25s-.42,3.23-1.32,3.02-2.85,1.66-2.85,1.66c0,0-2.93.3-1.06-2.93,0,0,.38-2.42-1.7-3.57-2.08-1.15.47-2.38-.42-2.59s-2.51-.68-.21-2.29c0,0,.98-1.7-.38-2.04,0,0-1.19-2.89,1.49-3.14,0,0,2.63,1.4,2.59-.64s-2-1.1.25-3.95c0,0,.89-.08.64-2.8,0,0-.25-.85.93-1.7s.42-1.26,1.87-.27,1.49-2.45,1.36-3.26.21-1.61,1.95-1.15,2.21-2.08,1.66-2.59.81-2.93,1.7-4.42,2.17-1.57,4.59-1.7,3.14-3.1,3.02-3.53,1.23-1.02,3.23-.93.47-3.44.47-3.44c0,0-.25-1.15,2.17-1.02,0,0,.98-.38,1.4-1.4s2.51-2.34,2.51-2.34c0,0,1.1-1.57-1.32-1.23s-1.19-3.23.81-3.53,4.16-4.08,4.16-4.08c0,0,.81-.38,2.12-.81s1.4-4.54,1.02-5.44.17-2.8,2.08-2.8,1.83,1.23,2.89-1.36c0,0,.3-1.15,1.66-1.06s2.08-2.93,1.27-2.85-3.69-3.14-2.21-4.2-.42-3.65-.42-3.65c0,0-.42-1.02,2.51-2.04,0,0,.59-2.89-1.19-4.12,0,0-1.02-.76,1.44-2.04,2.46-1.27,2.59-5.39,2.25-6.88s0-3.23.81-4.42-.34-2.38-.81-2.59-.34-1.87.55-3.14-.3-2.21-.81-2.21-1.91.72-1.57-1.27.81-1.44,2.04-1.53.47-4.08.47-4.08c0,0-.08-.81.89-1.02s-.51-2.72,1.78-4.93c2.29-2.21.38-4.2.38-4.2,0,0-2.17-2.04-2.93-1.02s-2.59,2.08-2-1.27.04-2.68-1.49-3.57.81-.76,1.95-1.15-.68-1.06.13-1.19,1.1.25,2.46-1.15c1.36-1.4.89-2.8.47-3.06s.93-1.66.51-2.68,1.4-4.37,2.42-4.71,2.29,1.23,1.66,2.63,1.91,4.29,3.19,2.34c0,0,2.59-.98,3.36.04s1.1,1.06,2.08.47.25.89.76,1.74.51,2,1.44,2.63,2-.85,3.06-.55.64-1.06,1.61-.76,1.32-.47,2.08.68,2.68-.72,2.17-3.57c-.51-2.85.51-3.27.51-3.27,0,0,4.12-.38.81-8.03,0,0-2.55-.44.68-3.49,0,0,1.44-3.14,2.97,1.03,0,0,2.04,2.12,1.78-1.19,0,0,2.89-1.87,2.97,2.29s-2.55,13-2.55,13c0,0-.93,1.61-.42,3.23,0,0-2.63.34-2.89,3.91,0,0-2.04.17-.93,7.73,0,0,.08,4.16-1.27,5.86s.76,1.19,1.78,2.72,1.27,3.4,1.02,8.49c-.25,5.1,3.14,3.91,5.69,2.72,2.55-1.19,2.72-.93,2.46-5.1-.25-4.16-.08-5.61,1.53-8.83,1.61-3.23,4.08-8.75,5.27-10.79s5.78-4.08,6.8-5.61,1.1-1.7,1.53-3.65,3.99-8.58,4.76-9.6,1.19-1.7,4.84-.93,5.69.93,4.33-1.36c0,0,1.53-1.1,3.99.59,0,0,.76.68-.51-1.36s1.87.25,1.87.25c0,0,1.02,1.44,2.55.17s1.02,1.61,1.02,1.61c0,0,1.61,5.01,4.67,2.04,0,0,1.78-1.44,2.72-.34s5.95,1.95,3.31-2.29c0,0,1.19-.93-.25-2.38s-1.53-3.04.59-3.35.24,1.48,2.41.88,1.41-1.61,2.94-.51,1.61,2.8,1.02,3.65-.25,1.7,2.55,4.16c0,0,.68,1.02.25,3.91-.42,2.89,1.78,1.61,2.55,1.61s.85,0,.08,2.55,1.53,1.53,1.53,1.53c0,0,.59.51-.68,1.19s-.25,2.12-.25,2.12c0,0,1.1,1.53-2.8,1.95s-1.19,3.48-1.19,3.48c0,0,.08.76-2.38,1.36,0,0-.42,2.12,1.02,3.74,1.44,1.61-.93,1.27.17,3.31,0,0,.51.85,2.21.17s-.93,2.29-.93,2.29c0,0-1.36,1.02.42,1.53s-1.44,2.38,1.87,3.48,1.02,5.18,1.02,5.44.34,2.04,1.87,2.55c0,0,.25.42.25,2.8s1.36,2.55,1.36,2.55c0,0,.93,2.38.59,3.65s.76,1.44,1.7,1.36.08,1.61.08,1.61c0,0,2.38,1.87,3.91-.59,0,0,1.19-.76,2.46.42s2.29.42,3.31.17,1.78.68,2.8-.17,1.19-1.1,2.38-.59,2.29-.93,2.89-.68.68.51.51,1.61,2.04-.08,1.87-1.27,1.36,1.1,1.36,1.1c0,0,1.7-.17.42-2.63s-.76-1.87,1.44-2.29,1.78-.42,2.38-1.7,2.76-.17,2.76-.17Z"/>
    </g>
  </g>
</svg>