<?xml version="1.0" encoding="UTF-8"?>
<svg id="Lager_2" data-name="Lager 2" xmlns="http://www.w3.org/2000/svg" viewBox="0 0 640.27 584.87">
  <g id="smaland">
    <path d="m419.58,126.93s4.94,3.19,3.77-2.61,1.35-3.97,3-6.77-1.35-7.26-2.23-7.26c0,0-2.52-6.97,9.39-3,0,0,6.19.29,2.32-6.29,0,0-1.84-1.26-2.03-3.77,0,0-4.74-6.19,1.84-4.55,0,0,.58.48.29,2.71s5.42,1.16,4.26-2.23-.1-2.42,1.45-2.32-.77-4.35,7.45-3.1c0,0,1.94.1,1.55,4.55s7.45,4.94,7.45,4.94c0,0,3.19.39,6.29,4.16s6.68-1.74,6.68-1.74c0,0,11.06-2.26,13.13-3.03s-2.06,4.9,4.13,5.94c0,0-4.13,13.68,6.19,7.74s-2.84-12.65,4.9-14.19c0,0,1.03,3.61,3.1-4.65,0,0,1.81,6.71,5.94.26s-2.84-2.84,4.13-6.45,0,0,0,0c0,0-5.94-9.55-7.48-9.81s-5.68-4.13,1.55-8.26c0,0,0-3.35-1.03-6.45s.77-4.39,8.26-3.35c0,0,4.9-8.26-5.42-11.61s4.39-10.84-8.26-16c0,0-2.84-11.87,2.58-9.29,0,0,1.55-1.55,1.81,3.87s2.58-1.29,9.03,1.81,4.9-7.48,9.81-4.39c0,0,3.35,12.39,7.48,3.1,0,0-2.32-12.9,2.58-10.06s2.58-7.23,7.48-7.23-3.1-7.48,8.26-3.61c0,0,5.68,11.61,11.61,3.1,0,0,5.94-4.13,10.84,1.03s11.74,11.23,17.55,5.61.39,3.48,6,1.74,2.52,2.13,2.52,2.13c0,0-2.52,3.48,2.71,2.71,0,0,1.74,3.87,0,7.35s-4.06,0-2.32,5.61c0,0,.77.97,5.61.39,0,0,0,2.52,3.48,2.13s-2.32,5.23-1.94,8.71,1.74,6.39,7.94,6.97.52,2.32,0,3.61,3.61,3.55,4.9.26,4.65,9.03,5.68,4.13,3.87-2.06,6.71-7.23,9.29-2.06,9.29-2.06c0,0,1.03,3.35,0,5.42s1.55,3.35-5.16,3.61c0,0-2.84,5.94-2.06,8s.77,3.35,5.68,7.74c0,0,2.84,2.84-5.16,2.84s1.55,2.06,1.55,2.06c0,0,3.1.26.26,3.1s3.87,3.87,2.84,5.94-1.55,1.55-4.9,2.06-8.26-11.35-12.65-4.9c0,0-1.29,9.29-9.55-.77,0,0-5.16-2.58-3.61-4.65s-8.26-6.97-.52-6.97c0,0,7.74,3.58,2.58-1.69s-6.97-3.57-5.68-6.62-6.97-3.56-9.81-7.17.26-7.23-3.61-8-1.55,3.1-1.55,3.1v6.97s8.99,9.35,13.42,9.29-2.58,3.87-2.58,3.87c0,0-1.55,9.55,2.32,11.35s2.06,4.13-.26,3.61-8.26-12.9-16.77-6.71c0,0-5.16,4.39,5.68,7.23,0,0,1.55,2.32,1.03,3.87s4.65,6.71,8.77,10.84,12.9,13.94,15.48,17.03,9.29,8.52,9.29,12.39-3.02,4.52-3.87-1.55-6.97-6.97-6.97-6.97c0,0-4.91,3.18,2.84,6.71,0,0-.26,8.3,3.61,6.19,0,0,2.84.77,2.06,4.9,0,0,6.19,2.71.26,3.87,0,0-2.97.26,1.29,2.71s-3.74,2.19-4.39.77c0,0-2.58-.77-3.35,2.71,0,0-3.74.77-7.1-2.32s-1.81,1.94,2.19,4.39-3.74,6.32-2.71,10.58,2.58,6.06,3.87,6.84,2.45,3.61.52,5.16-4.9-.71-4.9-.71c0,0-2.23.48-.29,2.52s2.13,2.13,1.55,5.03c0,0,.48,3.97,7.26,3.19,0,0,3.87.39-2.13,3.19s-2.9-5.9-11.42-8.71c0,0-3.29-1.65-5.32-2.52,0,0-.29-2.23,1.45-2.81,0,0,.58-4.94-2.03-4.55s-4.45.19-3.68,2.52.29,3.97,2.03,3.68.29,2.03-3.1,2.52-1.26,3.58.48,3.58,2.71.81,7.16,6.84c0,0,7.65,4.77,15.48,3.03,0,0,2.23-2.13,3-1.06s3.29,3.39,2.23,6.19-2.52-1.06-3.48-2.13-1.35-.48-.97,1.26-2.03.58-3.1.19-.58,4.35-.19,4.65,2.52,1.74,4.26,2.9-.58,1.84-.29,2.23,4.65,5.71,6.58,7.26c0,0,1.74,2.03-.97,3h-5.32c-.29,0-6.1-.29-2.42,3.58s2.61.39,4.65,2.9c0,0,9.29-.1,4.16,3.39,0,0-3.58,2.23-3.77,5.32s-3.19,3.1-6.29,3.39c0,0-4.45,4.06-3.77,6.1s2.23,3.29,1.74,5.61-4.45,6.68-7.06.97c0,0-4.26-1.45-7.16-.77s-.87,7.55-.87,7.55c0,0,2.03,1.65.29,5.03,0,0-.97,2.81,2.81,1.74,0,0-.1,2.52.87,3.1s.29,2.71.29,2.71c0,0-3.19,1.35-3.19-1.45,0,0-2.32-.89-2.03,1.78s-9,1.42-8.9,4.71-4.55,2.61-4.35,6.39c0,0-3.39,2.81-.39,4.94s5.71,3.48,5.42,7.84-6.1,7.26-5.71,10.16c0,0,1.16,1.94-1.26,5.03,0,0-1.45,5.03-.39,7.16s7.16,5.71,8.52,9.97-1.06,6.58,3.39,6.87c0,0,1.74-.39,2.13,2.71s3.58,2.52,3.58,2.52c0,0,2.13,2.71,1.65,3.97s-2.13,3.39-4.74,3c0,0-1.35,3.29,2.42,3.77s3.77,2.32,3.97,3.29-2.52,6.19-4.84,1.65c0,0-2.42-1.94-2.32.97,0,0-1.06,1.55-1.26-3.68,0,0-1.84-3.29-2.81,2.32s-3.29,5.9-7.35,3.77-3.77,1.16,1.65,4.26c0,0,1.35,1.16-1.65,6.19,0,0-2.32,1.94.97,9,0,0-.1,4.74-3.48-.87,0,0-2.61-3.29-1.55-7.94,0,0-2.81-2.13-2.71,4.55s3,9.39,5.32,11.32.48,8.23.48,8.23c0,0-2.03,1.26-4.35,0s-3.77,2.71-.29,4.45,1.35,9,1.35,9c0,0-2.81,1.16-1.45,5.23,0,0,.1,3.19-4.06,6.87,0,0-1.06.87-.29,6.77,0,0,.19,2.42-2.32,3.87,0,0-.68,2.71.1,3.97,0,0,.48,8.81,7.26,1.55s6.68,3.87,6.68,3.87c0,0-4.35,12.87-9.58,1.06,0,0-9.87-2.51-10.94,4.98,0,0-.29,2.47,1.16,5.18,0,0,.39,2.32-.68,3.48,0,0,2.71.87,1.45,3s-4.45,3-1.74,5.42.48,2.71-.1,5.61,3.77,4.94-.87,9.48-7.65-1.16-9.77-.58c0,0-5.61-.77-4.06,4.45s-7.26,1.26-5.32,4.84c0,0,2.03,2.81-3.87,7.06l.19,17.81s-1.06,5.61-6.48,6.87c0,0,.77,3.19-2.81,7.55,0,0-.97,2.81-1.84,7.35s-5.03,2.13-6.1,5.42,2.03,7.84-4.26,12.1c0,0-1.16-.87-1.16,6s-2.13,5.42-1.94,9.48-2.03,5.52-1.84,12c0,0-.58,2.9-6.1,1.55,0,0-2.13,2.42-4.45,6.19s-4.65-.1-8.13,0c0,0,1.35-10.65-5.81-3.39s-4.45,0-10.16.19-.68-6.1-9.29-6.39-7.65-6.19-7.35-8.23,3.48-6.19.19-8.61.19-6.19-5.61-6.1-12-.97-12.19-12.29.1-.48.1-.48c0,0-3.97-6.77-10.55-4.65s-1.26-9.39-5.13-9-13.06-4.45-12.48,1.65c0,0,3,2.13,2.32,4.45s-3.77,2.32-5.9-.29c0,0-.19.19-4.84.19,0,0-1.94-.39-2.71-3.77s-5.42,3.19-5.42,3.19c0,0-.87,4.16-7.55,0,0,0-4.94-1.45-4.65,2.13s-.1,4.06-4.74,4.06,1.74,2.9-4.65,2.9c0,0-1.26-8.9-4.35-3.29s-2.61.39-4.94-.19-3.97,3.68,1.84,5.81-4.84,11.42-7.06,5.13-3.58-1.45-3.48.68-3.39-4.06-9-5.9-7.35,2.32-7.35,2.32c0,0-2.13,2.13-3.48-2.9s-17.81-1.94-13.55.39-1.74,3.1-1.26,7.84c0,0-.58,1.06-2.23,2.32s3.58,2.81,3.48,4.35,1.06,6.77-5.32,3.1c0,0-3.19-.77-4.06,2.03s-1.26-5.71-3.87,2.13c0,0-.48,1.74.68,3.48s-11.13.97-11.13.97c0,0-1.65-.39-1.55-3.29s-1.94,2.61-7.06.29,3.97-5.71-2.52-4.94c0,0-2.32,0-3.58,1.16s-1.55-.97-4.55-2.61-3.58,3.1-6.39,2.23-1.84-6.1-4.55-5.03-5.81,3.39-5.81,3.39c0,0-5.52,1.16.87-4.35,0,0,1.96-1.16-3.08-6.68,0,0-.79-1.65-1.08-4.16s-11.03-3.48-11.03-3.48c0,0-14.9-4.55-14.03-8.23s-4.26-3.1-4.84-1.26-4.35,3.29-8.71-.58-10.94-2.32-10.94-2.32c0,0-3.97,1.74-5.42-4.35,0,0-6.97-4.06-9.58,1.84,0,0,.1,1.65-5.71,1.84s-5.61-3.68-8.42-5.13-4.55.68-7.06-4.45-4.94-10.45-5.42-2.52c0,0,.87,2.03-3.1,1.74s-5.9,2.52-4.65,4.65-.38,4.94-.38,4.94c0,0-.96,2.71,0,5.9s-6.68,5.61-8.23,2.42-5.03-1.45-4.84-.1-1.55,3.48-4.55.77-3.1,2.03-3.1,2.03c0,0-3,.97-5.03-.1s-1.06,4.55-1.06,4.55c0,0-.97,3.19-4.55-.39s-4.16,1.45-4.16,1.45c0,0-.97,2.32-6.97-1.74,0,0-1.65-.39-3.29,2.03,0,0-4.65-1.26-5.23,1.55s-2.32,2.81-7.94-1.06c0,0-1.35-.48-1.65,1.84s-3,1.84-5.32.29-3.77,2.23-3.77,2.23c0,0-.97,4.55-4.55,1.55s-3.39,2.42-7.65,4.35-10.16-1.35-12.19-3.87-5.42-1.55-3.1-5.52-2.42-2.42-2.13-9-3.77-1.74-3.1-11.81c0,0,.87-1.74,4.06-2.42s-2.52-13.26-2.52-13.26c0,0-.29-6.97-4.74-7.84,0,0-2.61.97-1.74-6.68s-.18-.58-.18-.58c0,0-4.56-2.23-2.73-9.87s-14.42-13.35-14.42-13.35c0,0-6,.19-5.52-5.81,0,0-1.65-1.16,4.16-3.77,0,0-1.06-8.32,1.06-8.52s5.61-9.39.58-13.84-1.94-5.13-1.65-6.77-3.39-1.26.87-6.58,5.03-7.45,5.13-12,3.1-5.13,4.26-2.52,3.48-.68,3.87-1.26,3.97-.77,5.52.97,4.35-1.74,5.52-3.48,10.35-.87,11.13.87,1.06-3.68,3-3.48,7.94-.1,7.94-.1c0,0,3.77-6.48,11.32-5.71,0,0,1.26,1.06,5.03-6.39,0,0,1.45-3.1,6.19-3.48,0,0,3.19-4.65-3.29-4.94,0,0-3.29.1.39-9.29,0,0,1.35-6.68-5.81-4.74,0,0-1.74,3.58-4.65-1.06,0,0-.39-2.42-5.13-1.74s-2.13-5.9-2.13-5.9c0,0,3.39-9.68-1.16-10.74,0,0-2.03-1.84-2.81-4.65,0,0-2.61,1.06-3.48-3.19s-6.48-1.26-8.81-7.45c0,0-4.74-4.84-6,2.42,0,0-3.58,5.23-5.13-4.16,0,0-8.42-2.9-12.29,1.74s-3.19-2.81-8.42,2.42-12.77.97-12.77.97c0,0-1.65,0-1.55,3s-4.74,2.81-4.74,2.81c0,0-1.55-1.45-.77,5.13s-.97,7.35-3,6.87-6.48,3.77-6.48,3.77c0,0-6.68.68-2.42-6.68,0,0,.87-5.52-3.87-8.13s1.06-5.42-.97-5.9-5.71-1.55-.48-5.23c0,0,2.23-3.87-.87-4.65,0,0-2.71-6.58,3.39-7.16,0,0,6,3.19,5.9-1.45s-4.55-2.52.58-9c0,0,2.03-.19,1.45-6.39,0,0-.58-1.94,2.13-3.87s.97-2.87,4.26-.61,3.39-5.58,3.1-7.42.48-3.68,4.45-2.61,5.03-4.74,3.77-5.9,1.84-6.68,3.87-10.06,4.94-3.58,10.45-3.87,7.16-7.06,6.87-8.03,2.81-2.32,7.35-2.13,1.06-7.84,1.06-7.84c0,0-.58-2.61,4.94-2.32,0,0,2.23-.87,3.19-3.19s5.71-5.32,5.71-5.32c0,0,2.52-3.58-3-2.81s-2.71-7.35,1.84-8.03,9.48-9.29,9.48-9.29c0,0,1.84-.87,4.84-1.84s3.19-10.35,2.32-12.39.39-6.39,4.74-6.39,4.16,2.81,6.58-3.1c0,0,.68-2.61,3.77-2.42s4.74-6.68,2.9-6.48-8.42-7.16-5.03-9.58-.97-8.32-.97-8.32c0,0-.97-2.32,5.71-4.65,0,0,1.35-6.58-2.71-9.39,0,0-2.32-1.74,3.29-4.65s5.9-12.29,5.13-15.68,0-7.35,1.84-10.06-.77-5.42-1.84-5.9-.77-4.26,1.26-7.16-.68-5.03-1.84-5.03-4.35,1.65-3.58-2.9,1.84-3.29,4.65-3.48,1.06-9.29,1.06-9.29c0,0-.19-1.84,2.03-2.32s-1.16-6.19,4.06-11.23.87-9.58.87-9.58c0,0-4.94-4.65-6.68-2.32s-5.9,4.74-4.55-2.9.1-6.1-3.39-8.13,1.84-1.74,4.45-2.61-1.55-2.42.29-2.71,2.52.58,5.61-2.61,2.03-6.39,1.06-6.97,2.13-3.77,1.16-6.1,3.19-9.97,5.52-10.74,5.23,2.81,3.77,6,4.35,9.77,7.26,5.32c0,0,5.9-2.23,7.65.1s2.52,2.42,4.74,1.06.58,2.03,1.74,3.97,1.16,4.55,3.29,6,4.55-1.94,6.97-1.26,1.45-2.42,3.68-1.74,3-1.06,4.74,1.55,6.1-1.65,4.94-8.13,1.15-7.45,1.15-7.45c0,0,9.39-.87,1.85-18.29,0,0-5.81-1,1.55-7.95,0,0,3.29-7.15,6.77,2.34,0,0,4.65,4.84,4.06-2.71,0,0,6.58-4.26,6.77,5.23s-5.81,29.61-5.81,29.61c0,0-2.13,3.68-.97,7.35,0,0-6,.77-6.58,8.9,0,0-4.65.39-2.13,17.61,0,0,.19,9.48-2.9,13.35s1.74,2.71,4.06,6.19,2.9,7.74,2.32,19.35,7.16,8.9,12.97,6.19,6.19-2.13,5.61-11.61-.19-12.77,3.48-20.13,9.29-19.94,12-24.58,13.16-9.29,15.48-12.77,2.52-3.87,3.48-8.32,9.1-19.55,10.84-21.87,2.71-3.87,11.03-2.13,12.97,2.13,9.87-3.1c0,0,3.48-2.52,9.1,1.35,0,0,1.74,1.55-1.16-3.1s4.26.58,4.26.58c0,0,2.32,3.29,5.81.39s2.32,3.68,2.32,3.68c0,0,3.68,11.42,10.65,4.65,0,0,4.06-3.29,6.19-.77s13.55,4.45,7.55-5.23c0,0,2.71-2.13-.58-5.42s-3.48-6.94,1.35-7.63.55,3.37,5.5,2.02,3.21-3.68,6.69-1.16,3.68,6.39,2.32,8.32-.58,3.87,5.81,9.48c0,0,1.55,2.32.58,8.9s4.06,3.68,5.81,3.68,1.94,0,.19,5.81,3.48,3.48,3.48,3.48c0,0,1.35,1.16-1.55,2.71s-.58,4.84-.58,4.84c0,0,2.52,3.48-6.39,4.45s-2.71,7.94-2.71,7.94c0,0,.19,1.74-5.42,3.1,0,0-.97,4.84,2.32,8.52s-2.13,2.9.39,7.55c0,0,1.16,1.94,5.03.39s-2.13,5.23-2.13,5.23c0,0-3.1,2.32.97,3.48s-3.29,5.42,4.26,7.94,2.32,11.81,2.32,12.39.77,4.65,4.26,5.81c0,0,.58.97.58,6.39s3.1,5.81,3.1,5.81c0,0,2.13,5.42,1.35,8.32s1.74,3.29,3.87,3.1.19,3.68.19,3.68c0,0,5.42,4.26,8.9-1.35,0,0,2.71-1.74,5.61.97s5.23.97,7.55.39,4.06,1.55,6.39-.39,2.71-2.52,5.42-1.35,5.23-2.13,6.58-1.55,1.55,1.16,1.16,3.68,4.65-.19,4.26-2.9,3.1,2.52,3.1,2.52c0,0,3.87-.39.97-6s-1.74-4.26,3.29-5.23,4.06-.97,5.42-3.87,6.29-.39,6.29-.39Z"/>
  </g>
</svg>