<svg xmlns="http://www.w3.org/2000/svg" viewBox="0 0 382.08 375.79"><defs><style>.cls-1{font-size:60px;stroke:#000;stroke-miterlimit:10;font-family:CenturyGothic, Century Gothic;letter-spacing:0.16em;}.cls-2{letter-spacing:0.04em;}.cls-3{letter-spacing:0.16em;}</style></defs><g id="Layer_2" data-name="Layer 2"><g id="Lager_1" data-name="Lager 1"><path d="M191.66,151.54c19.09,41.72,39.94,83.57,59.33,125.79l-4.58-3,89.83-3.86-7.81,13.08L186.64,12.7h8.8L52.52,282.93l-6.68-11.2,91.07,2.59-4.59,3c19.39-42.22,40.25-84.07,59.34-125.79Zm0,3.28c-17.88,43.34-33.86,86.53-51.34,129.41l-3.41.09-91.07,2.6-13.05.37,6.37-11.57L186.64,8,191,0l4.42,8L344,275.11l7.64,13.75-15.44-.67-89.83-3.87-3.43-.14c-17.48-42.86-33.45-86-51.32-129.36Z"/><text class="cls-1" transform="translate(0.5 356.89)">CAMPLI<tspan class="cls-2" x="282.69" y="0">V</tspan><tspan class="cls-3" x="327.09" y="0">A</tspan></text></g></g></svg>