<?xml version="1.0" encoding="UTF-8"?>
<svg id="Lager_1" data-name="Lager 1" xmlns="http://www.w3.org/2000/svg" viewBox="0 0 354.34 375.79">
  <defs>
    <style>
      .cls-1 {
        font-family: CenturyGothic, 'Century Gothic';
        font-size: 60px;
        letter-spacing: .16em;
        stroke: #000;
        stroke-miterlimit: 10;
      }

      .cls-2 {
        fill: #0f1c3a;
      }
    </style>
  </defs>
  <path class="cls-2" d="m177.79,151.54c19.09,41.72,39.94,83.57,59.34,125.8,0,0-4.59-3.01-4.59-3.01l89.83-3.87s-7.8,13.08-7.8,13.08L172.77,12.7s8.8,0,8.8,0L38.65,282.93s-6.68-11.2-6.68-11.2c0,0,91.07,2.59,91.07,2.59l-4.59,3.01c19.39-42.22,40.25-84.08,59.34-125.8h0Zm0,3.29c-17.88,43.33-33.86,86.53-51.34,129.4,0,0-3.41.1-3.41.1,0,0-91.07,2.59-91.07,2.59,0,0-13.05.37-13.05.37l6.37-11.57L172.77,7.95S177.15,0,177.15,0l4.42,7.95s148.6,267.16,148.6,267.16l7.64,13.74s-15.45-.66-15.45-.66c0,0-89.83-3.87-89.83-3.87l-3.43-.15c-17.48-42.86-33.45-86.03-51.32-129.35h0Z"/>
  <text class="cls-1" transform="translate(.5 356.89)"><tspan x="0" y="0">CAMPINA</tspan></text>
</svg>