<svg id="Lager_1" data-name="Lager 1" xmlns="http://www.w3.org/2000/svg" viewBox="0 0 382.08 375.79"><defs><style>.cls-1{fill:#0f1c3a;}.cls-2{font-size:60px;stroke:#000;stroke-miterlimit:10;font-family:CenturyGothic, Century Gothic;letter-spacing:0.16em;}.cls-3{letter-spacing:0.04em;}.cls-4{letter-spacing:0.16em;}</style></defs><path class="cls-1" d="M645,406.71c19.09,41.73,39.94,83.57,59.34,125.8l-4.59-3,89.83-3.87-7.8,13.08L639.93,267.88h8.8L505.81,538.11l-6.68-11.2,91.07,2.59-4.59,3c19.4-42.22,40.25-84.08,59.34-125.8Zm0,3.29c-17.88,43.33-33.86,86.53-51.34,129.4l-3.41.1-91.07,2.59-13.05.37,6.37-11.57L639.93,263.13l4.38-7.95,4.42,7.95,148.6,267.16L805,544l-15.44-.66L699.7,539.5l-3.43-.15c-17.48-42.86-33.45-86-51.32-129.35Z" transform="translate(-449.63 -255.18)"/><text class="cls-2" transform="translate(0.5 356.89)">CAMPLI<tspan class="cls-3" x="282.69" y="0">V</tspan><tspan class="cls-4" x="327.09" y="0">A</tspan></text></svg>