<?xml version="1.0" encoding="UTF-8"?>
<svg id="Lager_1" data-name="Lager 1" xmlns="http://www.w3.org/2000/svg" viewBox="0 0 987.75 666.74">
  <defs>
    <style>
      .cls-1 {
        font-family: CenturyGothic, 'Century Gothic';
        font-size: 60px;
        letter-spacing: .35em;
        stroke: #000;
        stroke-miterlimit: 10;
        stroke-width: 3px;
      }
    </style>
  </defs>
  <g>
    <text class="cls-1" transform="translate(507.33 440.65)"><tspan x="0" y="0">CAMPINA</tspan></text>
    <path d="m866.73,470.8s114.53,185.45,114.53,185.45c0,0,6.48,10.49,6.48,10.49-5.36-.19-160.15-1.89-168.72-2.08-29.47-52.15-63.77-111.88-93.62-163.68-.55-.82-.73-1.85-2.12-2.18h8.66s-94.34,163.4-94.34,163.4l-1.43,2.47-2.9.03s-153.34,1.54-153.34,1.54c0,0-11.81.12-11.81.12,0,0,6.14-9.93,6.14-9.93l114.5-185.24s-103.17,191.78-103.17,191.78l-5.67-9.82s153.34,1.54,153.34,1.54l-4.33,2.5c12.9-22.43,101.86-176.36,112.35-194.59,0,0-9.35,31.19-9.35,31.19-.41,1.37.4,2.04.83,2.93l1.48,2.55c12.03,20.78,32.12,55.42,44.36,76.51,11.79,20.32,35.75,61.17,47.67,81.41,0,0-4.33-2.5-4.33-2.5,0,0,153.34-1.89,153.34-1.89,0,0-5.97,10.34-5.97,10.34.45-.47-105.31-192.59-102.59-192.34h0Z"/>
    <polygon points="645.85 376.12 725.48 228.19 729.81 220.13 734.14 228.19 809.39 368.53 725.48 233.19 734.14 233.19 645.85 376.12 645.85 376.12"/>
  </g>
  <text/>
</svg>