<?xml version="1.0" encoding="UTF-8"?>
<svg xmlns="http://www.w3.org/2000/svg" xmlns:xlink="http://www.w3.org/1999/xlink" viewBox="0 0 1920 1080">
  <defs>
    <style>
      .cls-1 {
        fill: url(#linear-gradient-2);
      }

      .cls-2, .cls-3, .cls-4, .cls-5, .cls-6, .cls-7, .cls-8, .cls-9, .cls-10, .cls-11, .cls-12, .cls-13, .cls-14 {
        stroke-miterlimit: 10;
      }

      .cls-2, .cls-3, .cls-4, .cls-6, .cls-8, .cls-9, .cls-10, .cls-12 {
        stroke: #000;
      }

      .cls-2, .cls-3, .cls-13 {
        stroke-width: 11px;
      }

      .cls-2, .cls-6, .cls-9, .cls-10, .cls-13 {
        fill: none;
      }

      .cls-3, .cls-5, .cls-7, .cls-11, .cls-15, .cls-12 {
        fill: #682d2d;
      }

      .cls-4 {
        fill: url(#Namnlös_övertoning_104);
      }

      .cls-5 {
        stroke: #1c1919;
      }

      .cls-5, .cls-9, .cls-12 {
        stroke-width: 5px;
      }

      .cls-6 {
        stroke-width: 10px;
      }

      .cls-7 {
        stroke: #fff;
      }

      .cls-16 {
        fill: url(#Namnlös_övertoning_259);
      }

      .cls-8 {
        fill: url(#Namnlös_övertoning_221);
      }

      .cls-8, .cls-10 {
        stroke-width: 7px;
      }

      .cls-17 {
        fill: #1c1919;
      }

      .cls-11 {
        stroke-width: 6px;
      }

      .cls-11, .cls-14 {
        stroke: #664646;
      }

      .cls-18 {
        fill: #110e0e;
      }

      .cls-19 {
        fill: url(#Namnlös_övertoning_165);
      }

      .cls-20 {
        fill: url(#linear-gradient);
      }

      .cls-13 {
        stroke: #1e1919;
      }

      .cls-14 {
        fill: #68282d;
        stroke-width: 4px;
      }
    </style>
    <linearGradient id="Namnlös_övertoning_104" data-name="Namnlös övertoning 104" x1="925.18" y1="632.59" x2="930.27" y2="52.71" gradientUnits="userSpaceOnUse">
      <stop offset="0" stop-color="#e9f0ff"/>
      <stop offset=".46" stop-color="#6adbff"/>
      <stop offset=".97" stop-color="#9fbcd9"/>
    </linearGradient>
    <linearGradient id="Namnlös_övertoning_165" data-name="Namnlös övertoning 165" x1="951.68" y1="508.51" x2="915.4" y2="1785.68" gradientUnits="userSpaceOnUse">
      <stop offset="0" stop-color="#000a15"/>
      <stop offset=".18" stop-color="#567d99"/>
      <stop offset=".61" stop-color="#0098e9"/>
      <stop offset=".94" stop-color="#6a8ca9"/>
    </linearGradient>
    <linearGradient id="linear-gradient" x1="131.09" y1="717.57" x2="349.9" y2="717.57" gradientUnits="userSpaceOnUse">
      <stop offset="0" stop-color="#222900"/>
      <stop offset=".83" stop-color="#5a5e03"/>
    </linearGradient>
    <linearGradient id="linear-gradient-2" x1="1318.49" y1="706.8" x2="1637.18" y2="706.8" xlink:href="#linear-gradient"/>
    <linearGradient id="Namnlös_övertoning_259" data-name="Namnlös övertoning 259" x1="997.92" y1="635.55" x2="989.49" y2="1199.74" gradientUnits="userSpaceOnUse">
      <stop offset="0" stop-color="#222900"/>
      <stop offset=".24" stop-color="#222900"/>
      <stop offset=".6" stop-color="#002a10"/>
      <stop offset=".75" stop-color="#052a0e"/>
      <stop offset=".94" stop-color="#212a00"/>
    </linearGradient>
    <linearGradient id="Namnlös_övertoning_221" data-name="Namnlös övertoning 221" x1="675.48" y1="533.36" x2="672.1" y2="652.56" gradientUnits="userSpaceOnUse">
      <stop offset="0" stop-color="#2a0a00"/>
      <stop offset=".77" stop-color="#333536"/>
    </linearGradient>
  </defs>
  <g id="sky">
    <rect class="cls-4" x="-155.1" y="-112.9" width="2164.65" height="1024.26"/>
  </g>
  <g id="hav">
    <polyline class="cls-19" points="-155.24 672.34 2074.58 672.34 2053.62 969.42 -187.61 921.5"/>
  </g>
  <g id="fan">
    <g>
      <line class="cls-15" x1="922.58" y1="118.19" x2="776.26" y2="327.23"/>
      <path class="cls-17" d="m927.09,121.35c.38,3.51-1.77,5.25-3.19,7.5l-4.59,6.52c-38.07,54.17-81.1,115.29-119.88,169.14-4.6,6.42-14.01,19.47-18.66,25.87,0,0-9.01-6.31-9.01-6.31,9.88-14.67,25.8-37.93,35.89-52.74,31.27-45.55,68.48-99.14,99.92-144.18,0,0,4.56-6.54,4.56-6.54,1.63-2.1,2.53-4.72,5.96-5.56,0,0,9.01,6.31,9.01,6.31h0Z"/>
    </g>
    <g>
      <line class="cls-15" x1="949.29" y1="141.42" x2="792.52" y2="358.58"/>
      <path class="cls-17" d="m953.75,144.64c1.27,2.29,1.04,3.41-.25,4.98,0,0-2.46,3.39-2.46,3.39-19.83,27.42-44.01,60.65-64.03,87.98-28.67,39-60.75,82.32-90.04,120.82,0,0-8.92-6.44-8.92-6.44,4.74-6.95,14.2-20.69,19.01-27.57,40.54-58.57,84.18-119.81,125.79-177.59,1.34-1.85,5.97-8.3,7.33-10.19,1.07-1.7,2.07-2.3,4.65-1.81,0,0,8.92,6.44,8.92,6.44h0Z"/>
    </g>
    <g>
      <line class="cls-15" x1="531.23" y1="165.81" x2="636.13" y2="263.35"/>
      <path class="cls-17" d="m534.97,161.78c.95-.49,2.51-1.11,3.4-.36.99.93,3.86,3.61,4.9,4.59,4.12,3.86,15.33,14.36,19.6,18.36,25.75,24.41,52.14,49.64,77,74.96,0,0-7.49,8.06-7.49,8.06-13.16-11.1-27.55-23.83-40.5-35.33-20.79-18.54-42.46-38.36-62.88-57.29,0,0-1.64-1.52-1.64-1.52-.73-.71-.37-2.12-.04-3.04,0,0,.16-.38.16-.38l7.49-8.06h0Z"/>
    </g>
    <g>
      <line class="cls-15" x1="508.39" y1="214.58" x2="614.84" y2="295.87"/>
      <path class="cls-17" d="m511.72,210.21c.85.03,1.32.57,1.89.98l1.66,1.27s3.32,2.55,3.32,2.55c31.23,23.96,68.39,52.34,99.58,76.49,0,0-6.68,8.74-6.68,8.74-29.02-21.85-64.48-48.91-93.35-70.86-3.01-2.29-8.68-6.6-11.66-8.87-.54-.44-1.18-.75-1.44-1.56,0,0,6.68-8.74,6.68-8.74h0Z"/>
    </g>
    <g>
      <polyline class="cls-15" points="597.42 327.23 483.61 250 477.81 245.16"/>
      <path class="cls-17" d="m594.33,331.78c-29.49-17.73-58.33-36.49-87.02-55.47-9.68-6.39-19.3-12.87-28.91-19.37-.54-.43-2.75-2.29-3.25-2.7-1.55-1.05-1.44-3.05-.87-4.86,0,0,7.04-8.45,7.04-8.45.75-.41,1.3-.57,1.82-.71,1.17-.33,2.36-.12,3.12.69,0,0,2.9,2.43,2.9,2.43l-.68-.51c18.95,12.9,37.8,25.95,56.49,39.22,18.71,13.27,37.3,26.69,55.54,40.62,0,0-6.18,9.1-6.18,9.1h0Z"/>
    </g>
    <g>
      <line class="cls-15" x1="1032.9" y1="604" x2="830.84" y2="434.06"/>
      <path d="m1027.83,610.03c-56.51-49.04-143.03-122.34-200.53-171.76,0,0,7.08-8.42,7.08-8.42,53.14,43.96,138.44,114.46,190.76,157.74,1.94,1.61,7.62,6.3,9.54,7.89,1.08.85,2.05,1.84,3.3,2.49,0,0-10.15,12.07-10.15,12.07h0Z"/>
    </g>
    <g>
      <line class="cls-15" x1="994.58" y1="631.48" x2="820.39" y2="473.55"/>
      <polygon points="988.75 637.91 816.69 477.62 824.08 469.47 1000.41 625.06 988.75 637.91 988.75 637.91"/>
    </g>
    <g>
      <line class="cls-15" x1="960" y1="660.71" x2="823.87" y2="519.03"/>
      <polygon points="954.13 666.35 820.63 522.15 827.12 515.91 965.87 655.07 954.13 666.35 954.13 666.35"/>
    </g>
    <line class="cls-12" x1="892.39" y1="485.83" x2="840.79" y2="536.65"/>
    <line class="cls-12" x1="936.21" y1="522.68" x2="878.73" y2="576.13"/>
    <line class="cls-12" x1="979.48" y1="559.07" x2="918.24" y2="617.25"/>
    <line class="cls-12" x1="1021.55" y1="594.45" x2="954.23" y2="654.71"/>
    <line class="cls-5" x1="820.39" y1="263.35" x2="866.59" y2="306.55"/>
    <line class="cls-5" x1="849.42" y1="222.71" x2="901.24" y2="263.35"/>
    <line class="cls-5" x1="881.94" y1="176.26" x2="936.21" y2="222.71"/>
    <line class="cls-5" x1="915.16" y1="128.79" x2="971.1" y2="176.26"/>
    <line class="cls-5" x1="614.84" y1="243.03" x2="571.83" y2="309.86"/>
    <g>
      <line class="cls-15" x1="805.29" y1="382.97" x2="979.48" y2="165.81"/>
      <path class="cls-17" d="m801,379.53c47.7-62.03,101.68-130.18,150.65-191.43,0,0,10.87-13.59,10.87-13.59l5.43-6.79c1.89-2.47,3.96-4.52,7.24-5.34,0,0,8.58,6.88,8.58,6.88-.03,1.84-.55,3.28-1.18,4.63-1.15,2.45-6.23,8.09-7.92,10.38-45.19,56.21-96.81,119.95-142.83,175.4-5.48,6.65-16.71,20.15-22.26,26.75,0,0-8.58-6.88-8.58-6.88h0Z"/>
    </g>
    <line class="cls-5" x1="577.56" y1="208.9" x2="531.23" y2="284.95"/>
    <line class="cls-5" x1="545.55" y1="176.26" x2="491.31" y2="255.23"/>
    <path d="m565.93,588.05c-11.64,17.89-24.7,35.55-37.59,52.54-3.22,4.17-8.73,11.34-11.95,15.41-.36.57-.76.66-1.57.48-.53-.13-1.19-.36-2.12-.81,0,0-8.64-6.8-8.64-6.8-.65-.8-1.03-1.38-1.28-1.87-.36-.74-.38-1.15.1-1.64,8.32-10.51,17.23-21.61,25.88-31.82,9.01-10.67,18.93-22.21,28.53-32.3,0,0,8.64,6.8,8.64,6.8h0Z"/>
    <path d="m556.79,628.83l7.16-13.03,9.66,5.27c-1.81,4.64-3.85,9.15-5.88,13.67-4.02,8.74-8.63,18.14-13.07,26.64-1.15,2.18-2.28,4.38-3.46,6.55l-1.75,3.27c-.32.53-.49,1.14-1.09,1.52-.88.5-1.75.6-3.01.48,0,0-9.67-5.24-9.67-5.24-.79-.99-1.18-1.76-1.24-2.78-.01-.71.41-1.18.68-1.74,0,0,1.78-3.25,1.78-3.25,8.34-15.06,17.18-30.22,27.04-44.36,0,0,9.66,5.27,9.66,5.27l-7.16,13.03-9.64-5.3h0Z"/>
    <line class="cls-9" x1="518.43" y1="639.5" x2="548.65" y2="660.71"/>
    <line class="cls-9" x1="548.65" y1="604" x2="568.77" y2="618.45"/>
  </g>
  <g id="grass">
    <g id="buske">
      <path class="cls-20" d="m331.66,775.65s23.15-16.17,15.25-30.49,12.06-13.57-4.88-25.67c0,0,28.03-14.99-21.66-35.32,0,0-13.55-30.57-48.56-13.59,0,0-20.33-31.89-42.92-20.48s-24.85,4.99-24.85,4.99c0,0-15.25-.91-32.19,5.61-5.8,2.23-15.09,5.95-18.12,9.87-5.83,7.54-1.08,15.85-1.08,15.85,0,0-8.47,24.81,3.95,22.57,8.92-1.61-1.6,5.86-15.25,15.83-5.37,3.92-7.45,10.49-9.6,17.23-3.32,10.43,5.95,42.5,28.24,37.55l71.15,7.91h48l52.52-11.86Z"/>
      <path class="cls-1" d="m1347.84,783.61c-5.75-2.15-7.99-10.62-18.64-29.42-3.09-5.46-14.69-20.48-9.32-39.49,1.07-3.79,4.62-15.83,16.42-23.88,17.56-11.99,40.05-4.18,40.05-4.18,1.01-2.89,18.07-40.87,57.39-29.86,15.21-6.35,25.48-22.87,34.37-25.42,14.21-4.07,41.3,1.05,48.78,11.72,1.75,2.5,1.84,5.41,1.76,7.02,0,0,51.95-26.36,65.51,2.16,13.55,28.52,36.14,8.19,49.69,34.17,13.55,25.97-18.07,48.38-29.36,50.73-11.29,2.35,49.69,10.62,4.52,18.91-13.3,2.44-18.38,5.83-18.92,9.4-.94,6.22,16.05,14.73,23.44,18.14"/>
    </g>
    <path class="cls-16" d="m-155.1,1162.4l26.89-428.72s375.22,27.19,539.48,20.13c164.26-7.07,533.58,14.1,533.58,14.1,0,0,401.77-1.34,511.74,0s395.88,12.11,530.42,14.44,111.26,0,111.26,0l36.68,394.57"/>
  </g>
  <g id="test_platform" data-name="test platform">
    <path d="m723.64,695.21l27.6,68.44c1.08,2.68-.89,5.6-3.78,5.6h-38.53c-2.25,0-4.08-1.83-4.08-4.08v-72.22c0-2.25-1.83-4.08-4.08-4.08h-14.12c-2.25,0-4.08,1.83-4.08,4.08v72.22c0,2.25-1.83,4.08-4.08,4.08h-41.74c-2.99,0-4.97-3.12-3.68-5.82l32.54-68.73c1.28-2.7-.69-5.82-3.68-5.82h-16.04c-1.57,0-3,.9-3.68,2.32l-36.09,75.72c-.68,1.42-2.11,2.32-3.68,2.32h-25.72c-2.25,0-4.08,1.83-4.08,4.08v17.82c0,2.25,1.83,4.08,4.08,4.08h261.07c2.25,0,4.08-1.82,4.08-4.08v-19.52c0-2.25-1.83-4.08-4.08-4.08h-56.25c-1.6,0-3.05-.94-3.71-2.4l-33.77-74.61"/>
  </g>
  <g id="hus">
    <path class="cls-7" d="m755.61,406.84c25.12,8.26,50.24,16.52,75.35,24.77l6.19,265.81-269.94,2.58-10.32-277.16"/>
    <line class="cls-11" x1="818.88" y1="427.64" x2="824.27" y2="697.54"/>
    <line class="cls-11" x1="805.46" y1="423.23" x2="811.1" y2="697.54"/>
    <line class="cls-11" x1="789.42" y1="416.65" x2="794.84" y2="697.54"/>
    <line class="cls-11" x1="744" y1="413.49" x2="749.16" y2="697.54"/>
    <line class="cls-11" x1="725.94" y1="697.54" x2="722.06" y2="414.32"/>
    <line class="cls-11" x1="700.39" y1="697.54" x2="697.03" y2="413.49"/>
    <line class="cls-11" x1="671.74" y1="416.65" x2="675.61" y2="697.54"/>
    <line class="cls-11" x1="650.07" y1="699.21" x2="645.55" y2="414.32"/>
    <line class="cls-11" x1="621.42" y1="697.54" x2="618.32" y2="416.65"/>
    <line class="cls-11" x1="595.18" y1="420.64" x2="598.97" y2="700"/>
    <line class="cls-14" x1="572.65" y1="420.64" x2="577.29" y2="697.54"/>
  </g>
  <g id="roof">
    <path d="m640,226.19l102.58,34.84,99.87,171.87c-25.42-5.68-50.84-11.35-76.26-17.03-42.06-63.23-84.13-126.45-126.19-189.68Z"/>
    <polyline class="cls-15" points="766.97 412.39 541.29 423.23 643.19 234.63 645.55 230.26"/>
    <line class="cls-11" x1="744.06" y1="416.65" x2="744" y2="372.52"/>
    <line class="cls-11" x1="722.06" y1="420.64" x2="722.06" y2="336.9"/>
    <line class="cls-11" x1="697.03" y1="435.96" x2="697.03" y2="306.55"/>
    <line class="cls-11" x1="671.74" y1="416.65" x2="672.18" y2="268.77"/>
    <line class="cls-11" x1="645.65" y1="420.64" x2="644.77" y2="239.35"/>
    <line class="cls-11" x1="618.4" y1="423.23" x2="618.32" y2="277.29"/>
    <line class="cls-11" x1="595.21" y1="423.23" x2="595.18" y2="323.49"/>
    <line class="cls-11" x1="572.65" y1="423.23" x2="572.65" y2="365.19"/>
  </g>
  <g id="border">
    <polyline class="cls-6" points="556.9 416.65 567.23 700 837.16 697.42 830.84 423.23"/>
    <line class="cls-3" x1="766.97" y1="409.68" x2="770.84" y2="697.54"/>
    <path class="cls-6" d="m645.35,230.64c-33.46,63.68-66.91,127.36-100.37,191.04-.09.17.04.38.24.38,75.05-2.85,150.1-5.69,225.16-8.54.2,0,.32-.23.2-.4l-124.79-182.5c-.11-.16-.35-.15-.44.03Z"/>
  </g>
  <g id="Lager_4" data-name="Lager 4">
    <path class="cls-2" d="m741.29,552.52l-73.86,264.63c-.53,1.89-2.25,3.2-4.21,3.2h-142.13c-2.92,0-5.02-2.81-4.19-5.61l76.44-259.22"/>
    <g id="Lager_5" data-name="Lager 5">
      <polyline class="cls-10" points="644.57 579.42 541.29 580.09 541.29 608.77 541.29 655.1 766.97 654.71"/>
      <polygon points="772.73 578.92 712.82 579.63 716.15 577.07 671.33 738.13 664.41 736.2 709.4 575.19 710.11 572.66 712.73 572.63 772.65 571.92 772.73 578.92 772.73 578.92"/>
      <path d="m672.13,766.11c-1.83-2.21-1.34-3.85-.91-5.51l1.18-5c5.35-22.82,11.14-47.31,16.71-70,5.27-21.66,12.01-48.24,17.61-69.78,0,0,2.65-9.94,2.65-9.94l6.8,1.65c-10.13,46.33-21.64,94.07-33.12,140.07-.77,3.07-2.97,11.94-3.73,14.96-.37,1.67-.69,3.36-3.33,4.48,0,0-3.87-.94-3.87-.94h0Z"/>
      <line class="cls-10" x1="681.81" y1="802.19" x2="681.81" y2="686.65"/>
      <line class="cls-10" x1="701.56" y1="606.71" x2="701.56" y2="714.71"/>
      <line class="cls-10" x1="712.77" y1="576.13" x2="712.77" y2="672.97"/>
      <line class="cls-10" x1="647.89" y1="615.63" x2="540.52" y2="616.99"/>
      <line class="cls-10" x1="699.25" y1="615.65" x2="768.9" y2="615.65"/>
    </g>
  </g>
  <g id="door">
    <path class="cls-8" d="m691.38,533.83c-12.52.59-25.03,1.17-37.55,1.76-3.4.16-6.06,2.98-6.01,6.39.47,34.63.94,69.26,1.41,103.9.05,3.52,2.97,6.32,6.48,6.22,12.63-.35,25.25-.71,37.88-1.06,3.45-.1,6.19-2.95,6.13-6.41-.58-34.86-1.17-69.73-1.75-104.59-.06-3.56-3.05-6.36-6.6-6.19Z"/>
    <line class="cls-13" x1="646.66" y1="575.42" x2="668.65" y2="575.42"/>
    <line class="cls-13" x1="647.89" y1="611.02" x2="668.65" y2="611.02"/>
  </g>
  <g id="Lager_7" data-name="Lager 7">
    <path d="m429.21,824.21c14.9-28.67,30.07-57.14,46.47-85.03,21.8-11.46,64.82-34.06,86.64-45.48,21.34-11.15,64.56-33.59,85.99-44.59,0,0,1.99,3.74,1.99,3.74-21.23,11.65-63.82,34.77-85.12,46.24-21.28,11.46-64.05,34.4-85.35,45.81,0,0,1.4-1.36,1.4-1.36-13.53,24.41-25.5,49.77-39.78,73.8-1.22,2.06-3.98,6.64-5.23,8.7,0,0-.1.16-.1.16-.02.06-.08.1-.35.02-.22-.05-.75-.28-1.13-.43-.78-.27-3.14-1.5-1.3.34.42.38,1.01.86,1.94,1.53l-6.09-3.46h0Z"/>
    <path class="cls-18" d="m436.69,747.12c3.2-.7,2.68.58,3.28,1.26,0,0,1.27,2.33,1.27,2.33,4.56,8.35,13.16,24.11,17.8,32.62,6.81,12.66,13.69,25.28,20.42,37.99.03.05,0,0-.03-.06-1.03-1.84-3.82-1.93-4.93-.11-.31.46-.44,1.03-.46,1.44v-1.16s0-5.31,0-5.31c0-23.42.2-50.93.65-74.32,0,0,7,0,7,0s.2,10.62.2,10.62c.27,21.49.5,47.54.44,69.01,0,0,0,1.5,0,1.5-.18,5.3-7.39,7.14-10.06,2.48-6.83-12.74-13.46-25.58-20.2-38.37-4.46-8.66-12.71-24.47-17.1-32.99,0,0-1.22-2.36-1.22-2.36-.23-.88-1.58-1.16.79-3.43,0,0,2.16-1.15,2.16-1.15h0Z"/>
  </g>
</svg>